Coordinates
version=1
nRows=14
nColumns=38
inDegrees=no

Units are S.I. units (second, meters, Newtons, ...)
If the header above contains a line with 'inDegrees', this indicates whether rotational values are in degrees (yes) or radians (no).

endheader
time	pelvis_tilt	pelvis_list	pelvis_rotation	pelvis_tx	pelvis_ty	pelvis_tz	hip_flexion_r	hip_adduction_r	hip_rotation_r	knee_angle_r	ankle_angle_r	subtalar_angle_r	mtp_angle_r	hip_flexion_l	hip_adduction_l	hip_rotation_l	knee_angle_l	ankle_angle_l	subtalar_angle_l	mtp_angle_l	lumbar_extension	lumbar_bending	lumbar_rotation	arm_flex_r	arm_add_r	arm_rot_r	elbow_flex_r	pro_sup_r	wrist_flex_r	wrist_dev_r	arm_flex_l	arm_add_l	arm_rot_l	elbow_flex_l	pro_sup_l	wrist_flex_l	wrist_dev_l
1.83	0.387555	1.36266	1.09232	0.643574	-0.124604	1.02849	0.520714	0.0853339	0.0321886	0.986935	-0.181729	0	0	-0.110352	-0.112891	-0.24409	0.290402	-0.411161	0	0	-0.150203	0.0620536	-0.00968516	0.823676	-0.54819	0.780373	1.49583	1.5708	0	0	0.536555	-0.302185	0.468926	1.53897	1.5708	0	0
1.84	0.397262	1.36362	1.08511	0.642935	-0.12275	1.02866	0.531123	0.0853305	0.0243409	0.96772	-0.180577	0	0	-0.113862	-0.114077	-0.243149	0.289377	-0.413333	0	0	-0.153468	0.0629633	-0.005445	0.834955	-0.551175	0.783387	1.48503	1.5708	0	0	0.562356	-0.301452	0.488656	1.51924	1.5708	0	0
1.85	0.406894	1.36478	1.07819	0.642301	-0.120805	1.02879	0.540665	0.0849699	0.0167513	0.946559	-0.179297	0	0	-0.117434	-0.115037	-0.241955	0.288865	-0.414996	0	0	-0.156244	0.0640118	-2.95923e-05	0.845112	-0.555338	0.785824	1.47466	1.5708	0	0	0.589218	-0.298801	0.510014	1.49731	1.5708	0	0
1.86	0.41712	1.36645	1.07084	0.641611	-0.118764	1.02892	0.549114	0.0837455	0.00823741	0.923729	-0.178571	0	0	-0.121415	-0.115701	-0.240863	0.288866	-0.416253	0	0	-0.15913	0.0650799	0.00640594	0.85424	-0.560681	0.787575	1.46482	1.5708	0	0	0.61649	-0.294709	0.53273	1.47369	1.5708	0	0
1.87	0.426915	1.36818	1.0636	0.640961	-0.116593	1.02898	0.557022	0.0822708	0.000222699	0.899762	-0.178695	0	0	-0.125851	-0.115995	-0.239752	0.288293	-0.417604	0	0	-0.161434	0.0660255	0.0140157	0.862266	-0.566881	0.788924	1.45523	1.5708	0	0	0.643612	-0.289617	0.556719	1.44875	1.5708	0	0
1.88	0.437271	1.36985	1.05568	0.640369	-0.11431	1.02895	0.564306	0.0809188	-0.0072864	0.87474	-0.178932	0	0	-0.130649	-0.116319	-0.238216	0.287548	-0.418873	0	0	-0.163205	0.0672308	0.0222898	0.869642	-0.573632	0.790194	1.44575	1.5708	0	0	0.670288	-0.283376	0.581046	1.42274	1.5708	0	0
1.89	0.442808	1.36865	1.05179	0.639914	-0.111701	1.02871	0.573471	0.080742	-0.0142248	0.8476	-0.178679	0	0	-0.133075	-0.117082	-0.236461	0.285882	-0.420243	0	0	-0.163688	0.0707193	0.0257563	0.880899	-0.57547	0.795836	1.43644	1.5708	0	0	0.68868	-0.280393	0.594792	1.40577	1.5708	0	0
1.9	0.446345	1.36721	1.0493	0.639631	-0.108916	1.02839	0.582112	0.080923	-0.0207659	0.819222	-0.177458	0	0	-0.135415	-0.117598	-0.235282	0.283915	-0.421927	0	0	-0.163139	0.074152	0.0287464	0.893258	-0.576302	0.804004	1.42602	1.5708	0	0	0.705724	-0.278135	0.60746	1.38939	1.5708	0	0
1.91	0.447969	1.36588	1.04861	0.639515	-0.106021	1.02803	0.590131	0.0811304	-0.0271924	0.790151	-0.175916	0	0	-0.137469	-0.118054	-0.234918	0.283025	-0.423331	0	0	-0.162665	0.0769583	0.0313051	0.905183	-0.576261	0.811497	1.41585	1.5708	0	0	0.722094	-0.276495	0.619341	1.37415	1.5708	0	0
1.92	0.446747	1.36448	1.05061	0.639493	-0.102994	1.02759	0.598183	0.0804442	-0.033038	0.760756	-0.175097	0	0	-0.13927	-0.118032	-0.234695	0.282234	-0.424587	0	0	-0.161898	0.0792705	0.033699	0.91683	-0.575957	0.818872	1.40617	1.5708	0	0	0.737634	-0.275155	0.630479	1.35973	1.5708	0	0
1.93	0.442639	1.3633	1.05551	0.639371	-0.0997861	1.02705	0.606228	0.0779059	-0.0391683	0.731308	-0.175383	0	0	-0.141318	-0.117162	-0.234926	0.280869	-0.426139	0	0	-0.160809	0.0811831	0.0359875	0.928248	-0.575901	0.826413	1.397	1.5708	0	0	0.752404	-0.273435	0.641016	1.34545	1.5708	0	0
1.94	0.437166	1.36237	1.06213	0.63929	-0.0964013	1.02639	0.613281	0.0749019	-0.0466076	0.701408	-0.17465	0	0	-0.143664	-0.116055	-0.235177	0.279504	-0.427715	0	0	-0.159417	0.0827596	0.0381717	0.938974	-0.576063	0.833489	1.38851	1.5708	0	0	0.766857	-0.271363	0.651492	1.33113	1.5708	0	0
1.95	0.431549	1.36159	1.06949	0.639326	-0.0928578	1.02563	0.619134	0.0721668	-0.0555344	0.671689	-0.171745	0	0	-0.146075	-0.115098	-0.23532	0.278415	-0.429183	0	0	-0.158227	0.0840877	0.0395779	0.949201	-0.575724	0.839675	1.38071	1.5708	0	0	0.78088	-0.269828	0.661502	1.31814	1.5708	0	0
1.96	0.42436	1.36092	1.07886	0.639357	-0.0891322	1.02475	0.624581	0.0688247	-0.0655005	0.642558	-0.168359	0	0	-0.148559	-0.113847	-0.235308	0.277299	-0.430531	0	0	-0.15669	0.0849851	0.0406897	0.958505	-0.575669	0.844935	1.37364	1.5708	0	0	0.794647	-0.268313	0.671753	1.30564	1.5708	0	0
